<svg xmlns="http://www.w3.org/2000/svg" xmlns:xlink="http://www.w3.org/1999/xlink" width="740" height="474.5"><g transform="translate(-60 -40)"><path d="M80 65c0-2.76 2.24-5 5-5h310c2.76 0 5 2.24 5 5v144.5c0 2.76-2.24 5-5 5H85c-2.76 0-5-2.24-5-5z" fill="#fff"/><path d="M80 60h320v40H80z" fill="#ccc"/><path d="M80 65c0-2.76 2.24-5 5-5h310c2.76 0 5 2.24 5 5v144.5c0 2.76-2.24 5-5 5H85c-2.76 0-5-2.24-5-5zM80 100h320M121.33 100v114.5M300 100v114.5" stroke="#666" stroke-width="2" fill="none"/><use xlink:href="#a" transform="matrix(1,0,0,1,90,60) translate(129.05 23.6)"/><use xlink:href="#b" transform="matrix(1,0,0,1,85,102.5) translate(4 15.1)"/><use xlink:href="#c" transform="matrix(1,0,0,1,126.33333333333326,102.5) translate(54.574999999999996 15.1)"/><use xlink:href="#d" transform="matrix(1,0,0,1,305,102.5) translate(17.025 15.1)"/><use xlink:href="#e" transform="matrix(1,0,0,1,85,130.5) translate(16 16.9)"/><use xlink:href="#f" transform="matrix(1,0,0,1,126.33333333333326,130.5) translate(66.55 15.1)"/><use xlink:href="#g" transform="matrix(1,0,0,1,305,130.5) translate(21.55 15.1)"/><use xlink:href="#e" transform="matrix(1,0,0,1,85,158.5) translate(16 16.9)"/><use xlink:href="#h" transform="matrix(1,0,0,1,126.33333333333326,158.5) translate(56.074999999999996 15.1)"/><use xlink:href="#d" transform="matrix(1,0,0,1,305,158.5) translate(17.025 15.1)"/><use xlink:href="#e" transform="matrix(1,0,0,1,85,186.5) translate(16 16.9)"/><use xlink:href="#i" transform="matrix(1,0,0,1,126.33333333333326,186.5) translate(30.75 15.1)"/><use xlink:href="#d" transform="matrix(1,0,0,1,305,186.5) translate(17.025 15.1)"/><path d="M460 65c0-2.76 2.24-5 5-5h310c2.76 0 5 2.24 5 5v424.5c0 2.76-2.24 5-5 5H465c-2.76 0-5-2.24-5-5z" fill="#fff"/><path d="M460 65c0-2.76 2.24-5 5-5h310c2.76 0 5 2.24 5 5v424.5c0 2.76-2.24 5-5 5H465c-2.76 0-5-2.24-5-5zM460 100h320M500 100v394.5M678.67 100v394.5" stroke="#666" stroke-width="2" fill="none"/><use xlink:href="#j" transform="matrix(1,0,0,1,470,60) translate(120.57499999999999 23.6)"/><use xlink:href="#b" transform="matrix(1,0,0,1,465,102.5) translate(3 15.1)"/><use xlink:href="#k" transform="matrix(1,0,0,1,505,102.5) translate(46.099999999999994 15.1)"/><use xlink:href="#d" transform="matrix(1,0,0,1,683.6666666666667,102.5) translate(18.025 15.1)"/><use xlink:href="#e" transform="matrix(1,0,0,1,465,130.5) translate(15 16.9)"/><use xlink:href="#l" transform="matrix(1,0,0,1,505,130.5) translate(58.025 15.1)"/><use xlink:href="#g" transform="matrix(1,0,0,1,683.6666666666667,130.5) translate(22.55 15.1)"/><use xlink:href="#e" transform="matrix(1,0,0,1,465,158.5) translate(15 16.9)"/><use xlink:href="#m" transform="matrix(1,0,0,1,505,158.5) translate(65.525 15.1)"/><use xlink:href="#m" transform="matrix(1,0,0,1,683.6666666666667,158.5) translate(27.025 15.1)"/><use xlink:href="#n" transform="matrix(1,0,0,1,465,186.5) translate(3.5249999999999986 15.1)"/><use xlink:href="#c" transform="matrix(1,0,0,1,505,186.5) translate(54.574999999999996 15.1)"/><use xlink:href="#d" transform="matrix(1,0,0,1,683.6666666666667,186.5) translate(18.025 15.1)"/><use xlink:href="#e" transform="matrix(1,0,0,1,465,214.5) translate(15 16.9)"/><use xlink:href="#o" transform="matrix(1,0,0,1,505,214.5) translate(53.025 15.1)"/><use xlink:href="#g" transform="matrix(1,0,0,1,683.6666666666667,214.5) translate(22.55 15.1)"/><use xlink:href="#e" transform="matrix(1,0,0,1,465,242.5) translate(15 16.9)"/><use xlink:href="#p" transform="matrix(1,0,0,1,505,242.5) translate(30.124999999999993 15.1)"/><use xlink:href="#d" transform="matrix(1,0,0,1,683.6666666666667,242.5) translate(18.025 15.1)"/><use xlink:href="#e" transform="matrix(1,0,0,1,465,270.5) translate(15 16.9)"/><use xlink:href="#q" transform="matrix(1,0,0,1,505,270.5) translate(18.07499999999999 15.1)"/><use xlink:href="#d" transform="matrix(1,0,0,1,683.6666666666667,270.5) translate(18.025 15.1)"/><use xlink:href="#e" transform="matrix(1,0,0,1,465,298.5) translate(15 16.9)"/><use xlink:href="#r" transform="matrix(1,0,0,1,505,298.5) translate(51.525 15.1)"/><use xlink:href="#d" transform="matrix(1,0,0,1,683.6666666666667,298.5) translate(18.025 15.1)"/><use xlink:href="#e" transform="matrix(1,0,0,1,465,326.5) translate(15 16.9)"/><use xlink:href="#s" transform="matrix(1,0,0,1,505,326.5) translate(38.099999999999994 15.1)"/><use xlink:href="#d" transform="matrix(1,0,0,1,683.6666666666667,326.5) translate(18.025 15.1)"/><use xlink:href="#e" transform="matrix(1,0,0,1,465,354.5) translate(15 16.9)"/><use xlink:href="#t" transform="matrix(1,0,0,1,505,354.5) translate(56.05 15.1)"/><use xlink:href="#d" transform="matrix(1,0,0,1,683.6666666666667,354.5) translate(18.025 15.1)"/><use xlink:href="#e" transform="matrix(1,0,0,1,465,382.5) translate(15 16.9)"/><use xlink:href="#u" transform="matrix(1,0,0,1,505,382.5) translate(54.55 15.1)"/><use xlink:href="#d" transform="matrix(1,0,0,1,683.6666666666667,382.5) translate(18.025 15.1)"/><use xlink:href="#e" transform="matrix(1,0,0,1,465,410.5) translate(15 16.9)"/><use xlink:href="#v" transform="matrix(1,0,0,1,505,410.5) translate(62.2 15.1)"/><use xlink:href="#d" transform="matrix(1,0,0,1,683.6666666666667,410.5) translate(18.025 15.1)"/><use xlink:href="#e" transform="matrix(1,0,0,1,465,438.5) translate(15 16.9)"/><use xlink:href="#w" transform="matrix(1,0,0,1,505,438.5) translate(39.074999999999996 15.1)"/><use xlink:href="#d" transform="matrix(1,0,0,1,683.6666666666667,438.5) translate(18.025 15.1)"/><use xlink:href="#e" transform="matrix(1,0,0,1,465,466.5) translate(15 16.9)"/><use xlink:href="#x" transform="matrix(1,0,0,1,505,466.5) translate(45.099999999999994 15.1)"/><use xlink:href="#d" transform="matrix(1,0,0,1,683.6666666666667,466.5) translate(18.025 15.1)"/><path d="M400 114.9h25c2.76 0 5 2.23 5 5v73.9c0 2.76 2.24 5 5 5h25" stroke="#999" stroke-width="2" fill="none"/><path d="M421 124.9h-2v-20h2zM460 188.8v1.12l-17.76 8.88 17.76 8.88v1.12l-.45.9-21.8-10.9 21.8-10.9z" fill="#999"/><path d="M440 198.8l-.5 3.16-1.43 2.74-2.16 2.17-2.74 1.42-3.16.5-3.16-.5-2.75-1.43-2.17-2.17-1.42-2.74-.5-3.16.5-3.16 1.43-2.75 2.16-2.17 2.74-1.42 3.16-.5 3.16.5 2.75 1.43 2.17 2.16 1.42 2.74z" fill="#fff"/><path d="M433.48 188.35l3.02 1.56 2.4 2.4 1.55 3.02.54 3.32-1 .16 1 .16-.55 3.32-1.56 3.02-2.4 2.4-3.02 1.55-3.48.56-3.48-.55-3.02-1.56-2.4-2.4-1.55-3.02-.56-3.48.55-3.48 1.56-3.02 2.4-2.4 3.02-1.55 3.48-.56zm-6.32 1.92l-2.47 1.27-1.95 1.95-1.28 2.46-.46 2.84.47 2.84 1.28 2.47 1.94 1.95 2.46 1.28 2.84.46 2.84-.47 2.47-1.28 1.95-1.94 1.28-2.46.46-2.84-.47-2.84-1.28-2.47-1.94-1.96-2.46-1.27-2.84-.46z" fill="#999"/><defs><path fill="#333" d="M197 0v-115H63V0H30v-248h33v105h134v-105h34V0h-34" id="y"/><path fill="#333" d="M100-194c62-1 85 37 85 99 1 63-27 99-86 99S16-35 15-95c0-66 28-99 85-99zM99-20c44 1 53-31 53-75 0-43-8-75-51-75s-53 32-53 75 10 74 51 75" id="z"/><path fill="#333" d="M59-47c-2 24 18 29 38 22v24C64 9 27 4 27-40v-127H5v-23h24l9-43h21v43h35v23H59v120" id="A"/><path fill="#333" d="M100-194c63 0 86 42 84 106H49c0 40 14 67 53 68 26 1 43-12 49-29l28 8c-11 28-37 45-77 45C44 4 14-33 15-96c1-61 26-98 85-98zm52 81c6-60-76-77-97-28-3 7-6 17-6 28h103" id="B"/><path fill="#333" d="M24 0v-261h32V0H24" id="C"/><g id="a"><use transform="matrix(0.05,0,0,0.05,0,0)" xlink:href="#y"/><use transform="matrix(0.05,0,0,0.05,12.950000000000001,0)" xlink:href="#z"/><use transform="matrix(0.05,0,0,0.05,22.950000000000003,0)" xlink:href="#A"/><use transform="matrix(0.05,0,0,0.05,27.950000000000003,0)" xlink:href="#B"/><use transform="matrix(0.05,0,0,0.05,37.95,0)" xlink:href="#C"/></g><path fill="#333" d="M30-248c87 1 191-15 191 75 0 78-77 80-158 76V0H30v-248zm33 125c57 0 124 11 124-50 0-59-68-47-124-48v98" id="D"/><path fill="#333" d="M194 0L95-120 63-95V0H30v-248h33v124l119-124h40L117-140 236 0h-42" id="E"/><g id="b"><use transform="matrix(0.05,0,0,0.05,0,0)" xlink:href="#D"/><use transform="matrix(0.05,0,0,0.05,12,0)" xlink:href="#E"/></g><path fill="#333" d="M33 0v-248h34V0H33" id="F"/><path fill="#333" d="M30-248c118-7 216 8 213 122C240-48 200 0 122 0H30v-248zM63-27c89 8 146-16 146-99s-60-101-146-95v194" id="G"/><g id="c"><use transform="matrix(0.05,0,0,0.05,0,0)" xlink:href="#y"/><use transform="matrix(0.05,0,0,0.05,12.950000000000001,0)" xlink:href="#z"/><use transform="matrix(0.05,0,0,0.05,22.950000000000003,0)" xlink:href="#A"/><use transform="matrix(0.05,0,0,0.05,27.950000000000003,0)" xlink:href="#B"/><use transform="matrix(0.05,0,0,0.05,37.95,0)" xlink:href="#C"/><use transform="matrix(0.05,0,0,0.05,41.900000000000006,0)" xlink:href="#F"/><use transform="matrix(0.05,0,0,0.05,46.900000000000006,0)" xlink:href="#G"/></g><path fill="#333" d="M117-194c89-4 53 116 60 194h-32v-121c0-31-8-49-39-48C34-167 62-67 57 0H25l-1-190h30c1 10-1 24 2 32 11-22 29-35 61-36" id="H"/><path fill="#333" d="M177-190C167-65 218 103 67 71c-23-6-38-20-44-43l32-5c15 47 100 32 89-28v-30C133-14 115 1 83 1 29 1 15-40 15-95c0-56 16-97 71-98 29-1 48 16 59 35 1-10 0-23 2-32h30zM94-22c36 0 50-32 50-73 0-42-14-75-50-75-39 0-46 34-46 75s6 73 46 73" id="I"/><path fill="#333" d="M114-163C36-179 61-72 57 0H25l-1-190h30c1 12-1 29 2 39 6-27 23-49 58-41v29" id="J"/><g id="d"><use transform="matrix(0.05,0,0,0.05,0,0)" xlink:href="#F"/><use transform="matrix(0.05,0,0,0.05,5,0)" xlink:href="#H"/><use transform="matrix(0.05,0,0,0.05,15,0)" xlink:href="#A"/><use transform="matrix(0.05,0,0,0.05,20,0)" xlink:href="#B"/><use transform="matrix(0.05,0,0,0.05,30,0)" xlink:href="#I"/><use transform="matrix(0.05,0,0,0.05,40,0)" xlink:href="#B"/><use transform="matrix(0.05,0,0,0.05,50,0)" xlink:href="#J"/></g><path fill="#333" d="M232-93c-1 65-40 97-104 97C67 4 28-28 28-90v-158h33c8 89-33 224 67 224 102 0 64-133 71-224h33v155" id="K"/><path fill="#333" d="M233-177c-1 41-23 64-60 70L243 0h-38l-65-103H63V0H30v-248c88 3 205-21 203 71zM63-129c60-2 137 13 137-47 0-61-80-42-137-45v92" id="L"/><path fill="#333" d="M30 0v-248h33v221h125V0H30" id="M"/><g id="f"><use transform="matrix(0.05,0,0,0.05,0,0)" xlink:href="#K"/><use transform="matrix(0.05,0,0,0.05,12.950000000000001,0)" xlink:href="#L"/><use transform="matrix(0.05,0,0,0.05,25.900000000000002,0)" xlink:href="#M"/></g><path fill="#333" d="M185-189c-5-48-123-54-124 2 14 75 158 14 163 119 3 78-121 87-175 55-17-10-28-26-33-46l33-7c5 56 141 63 141-1 0-78-155-14-162-118-5-82 145-84 179-34 5 7 8 16 11 25" id="N"/><path fill="#333" d="M24-231v-30h32v30H24zM24 0v-190h32V0H24" id="O"/><g id="g"><use transform="matrix(0.05,0,0,0.05,0,0)" xlink:href="#N"/><use transform="matrix(0.05,0,0,0.05,12,0)" xlink:href="#A"/><use transform="matrix(0.05,0,0,0.05,17,0)" xlink:href="#J"/><use transform="matrix(0.05,0,0,0.05,22.95,0)" xlink:href="#O"/><use transform="matrix(0.05,0,0,0.05,26.899999999999995,0)" xlink:href="#H"/><use transform="matrix(0.05,0,0,0.05,36.9,0)" xlink:href="#I"/></g><path fill="#333" d="M140-251c81 0 123 46 123 126C263-46 219 4 140 4 59 4 17-45 17-125s42-126 123-126zm0 227c63 0 89-41 89-101s-29-99-89-99c-61 0-89 39-89 99S79-25 140-24" id="P"/><path fill="#333" d="M108 0H70L1-190h34L89-25l56-165h34" id="Q"/><path fill="#333" d="M141-36C126-15 110 5 73 4 37 3 15-17 15-53c-1-64 63-63 125-63 3-35-9-54-41-54-24 1-41 7-42 31l-33-3c5-37 33-52 76-52 45 0 72 20 72 64v82c-1 20 7 32 28 27v20c-31 9-61-2-59-35zM48-53c0 20 12 33 32 33 41-3 63-29 60-74-43 2-92-5-92 41" id="R"/><g id="h"><use transform="matrix(0.05,0,0,0.05,0,0)" xlink:href="#P"/><use transform="matrix(0.05,0,0,0.05,14,0)" xlink:href="#Q"/><use transform="matrix(0.05,0,0,0.05,23,0)" xlink:href="#B"/><use transform="matrix(0.05,0,0,0.05,33,0)" xlink:href="#J"/><use transform="matrix(0.05,0,0,0.05,38.95,0)" xlink:href="#R"/><use transform="matrix(0.05,0,0,0.05,48.95,0)" xlink:href="#C"/><use transform="matrix(0.05,0,0,0.05,52.900000000000006,0)" xlink:href="#C"/></g><path fill="#333" d="M205 0l-28-72H64L36 0H1l101-248h38L239 0h-34zm-38-99l-47-123c-12 45-31 82-46 123h93" id="S"/><path fill="#333" d="M96-169c-40 0-48 33-48 73s9 75 48 75c24 0 41-14 43-38l32 2c-6 37-31 61-74 61-59 0-76-41-82-99-10-93 101-131 147-64 4 7 5 14 7 22l-32 3c-4-21-16-35-41-35" id="T"/><g id="i"><use transform="matrix(0.05,0,0,0.05,0,0)" xlink:href="#S"/><use transform="matrix(0.05,0,0,0.05,11.65,0)" xlink:href="#Q"/><use transform="matrix(0.05,0,0,0.05,20.65,0)" xlink:href="#B"/><use transform="matrix(0.05,0,0,0.05,30.649999999999995,0)" xlink:href="#J"/><use transform="matrix(0.05,0,0,0.05,36.6,0)" xlink:href="#R"/><use transform="matrix(0.05,0,0,0.05,46.6,0)" xlink:href="#I"/><use transform="matrix(0.05,0,0,0.05,56.6,0)" xlink:href="#B"/><use transform="matrix(0.05,0,0,0.05,66.6,0)" xlink:href="#D"/><use transform="matrix(0.05,0,0,0.05,78.6,0)" xlink:href="#J"/><use transform="matrix(0.05,0,0,0.05,84.55,0)" xlink:href="#O"/><use transform="matrix(0.05,0,0,0.05,88.5,0)" xlink:href="#T"/><use transform="matrix(0.05,0,0,0.05,97.5,0)" xlink:href="#B"/></g><path fill="#333" d="M206 0h-36l-40-164L89 0H53L-1-190h32L70-26l43-164h34l41 164 42-164h31" id="U"/><g id="j"><use transform="matrix(0.05,0,0,0.05,0,0)" xlink:href="#L"/><use transform="matrix(0.05,0,0,0.05,12.950000000000001,0)" xlink:href="#B"/><use transform="matrix(0.05,0,0,0.05,22.950000000000003,0)" xlink:href="#Q"/><use transform="matrix(0.05,0,0,0.05,31.950000000000003,0)" xlink:href="#O"/><use transform="matrix(0.05,0,0,0.05,35.900000000000006,0)" xlink:href="#B"/><use transform="matrix(0.05,0,0,0.05,45.900000000000006,0)" xlink:href="#U"/></g><g id="k"><use transform="matrix(0.05,0,0,0.05,0,0)" xlink:href="#L"/><use transform="matrix(0.05,0,0,0.05,12.950000000000001,0)" xlink:href="#B"/><use transform="matrix(0.05,0,0,0.05,22.950000000000003,0)" xlink:href="#Q"/><use transform="matrix(0.05,0,0,0.05,31.950000000000003,0)" xlink:href="#O"/><use transform="matrix(0.05,0,0,0.05,35.900000000000006,0)" xlink:href="#B"/><use transform="matrix(0.05,0,0,0.05,45.900000000000006,0)" xlink:href="#U"/><use transform="matrix(0.05,0,0,0.05,58.85,0)" xlink:href="#F"/><use transform="matrix(0.05,0,0,0.05,63.85,0)" xlink:href="#G"/></g><path fill="#333" d="M84 4C-5 8 30-112 23-190h32v120c0 31 7 50 39 49 72-2 45-101 50-169h31l1 190h-30c-1-10 1-25-2-33-11 22-28 36-60 37" id="V"/><path fill="#333" d="M106-169C34-169 62-67 57 0H25v-261h32l-1 103c12-21 28-36 61-36 89 0 53 116 60 194h-32v-121c2-32-8-49-39-48" id="W"/><g id="l"><use transform="matrix(0.05,0,0,0.05,0,0)" xlink:href="#S"/><use transform="matrix(0.05,0,0,0.05,12,0)" xlink:href="#V"/><use transform="matrix(0.05,0,0,0.05,22,0)" xlink:href="#A"/><use transform="matrix(0.05,0,0,0.05,27,0)" xlink:href="#W"/><use transform="matrix(0.05,0,0,0.05,37,0)" xlink:href="#z"/><use transform="matrix(0.05,0,0,0.05,47,0)" xlink:href="#J"/></g><g id="m"><use transform="matrix(0.05,0,0,0.05,0,0)" xlink:href="#G"/><use transform="matrix(0.05,0,0,0.05,12.950000000000001,0)" xlink:href="#R"/><use transform="matrix(0.05,0,0,0.05,22.950000000000003,0)" xlink:href="#A"/><use transform="matrix(0.05,0,0,0.05,27.950000000000003,0)" xlink:href="#B"/></g><path fill="#333" d="M63-220v92h138v28H63V0H30v-248h175v28H63" id="X"/><g id="n"><use transform="matrix(0.05,0,0,0.05,0,0)" xlink:href="#X"/><use transform="matrix(0.05,0,0,0.05,10.950000000000001,0)" xlink:href="#E"/></g><path fill="#333" d="M212-179c-10-28-35-45-73-45-59 0-87 40-87 99 0 60 29 101 89 101 43 0 62-24 78-52l27 14C228-24 195 4 139 4 59 4 22-46 18-125c-6-104 99-153 187-111 19 9 31 26 39 46" id="Y"/><g id="o"><use transform="matrix(0.05,0,0,0.05,0,0)" xlink:href="#Y"/><use transform="matrix(0.05,0,0,0.05,12.950000000000001,0)" xlink:href="#z"/><use transform="matrix(0.05,0,0,0.05,22.950000000000003,0)" xlink:href="#H"/><use transform="matrix(0.05,0,0,0.05,32.95,0)" xlink:href="#A"/><use transform="matrix(0.05,0,0,0.05,37.95,0)" xlink:href="#B"/><use transform="matrix(0.05,0,0,0.05,47.95,0)" xlink:href="#H"/><use transform="matrix(0.05,0,0,0.05,57.95,0)" xlink:href="#A"/></g><g id="p"><use transform="matrix(0.05,0,0,0.05,0,0)" xlink:href="#P"/><use transform="matrix(0.05,0,0,0.05,14,0)" xlink:href="#Q"/><use transform="matrix(0.05,0,0,0.05,23,0)" xlink:href="#B"/><use transform="matrix(0.05,0,0,0.05,33,0)" xlink:href="#J"/><use transform="matrix(0.05,0,0,0.05,38.95,0)" xlink:href="#R"/><use transform="matrix(0.05,0,0,0.05,48.95,0)" xlink:href="#C"/><use transform="matrix(0.05,0,0,0.05,52.900000000000006,0)" xlink:href="#C"/><use transform="matrix(0.05,0,0,0.05,56.85,0)" xlink:href="#L"/><use transform="matrix(0.05,0,0,0.05,69.80000000000001,0)" xlink:href="#R"/><use transform="matrix(0.05,0,0,0.05,79.80000000000001,0)" xlink:href="#A"/><use transform="matrix(0.05,0,0,0.05,84.80000000000001,0)" xlink:href="#O"/><use transform="matrix(0.05,0,0,0.05,88.75000000000001,0)" xlink:href="#H"/><use transform="matrix(0.05,0,0,0.05,98.75000000000001,0)" xlink:href="#I"/></g><path fill="#333" d="M160-131c35 5 61 23 61 61C221 17 115-2 30 0v-248c76 3 177-17 177 60 0 33-19 50-47 57zm-97-11c50-1 110 9 110-42 0-47-63-36-110-37v79zm0 115c55-2 124 14 124-45 0-56-70-42-124-44v89" id="Z"/><path fill="#333" d="M135-143c-3-34-86-38-87 0 15 53 115 12 119 90S17 21 10-45l28-5c4 36 97 45 98 0-10-56-113-15-118-90-4-57 82-63 122-42 12 7 21 19 24 35" id="aa"/><g id="q"><use transform="matrix(0.05,0,0,0.05,0,0)" xlink:href="#Z"/><use transform="matrix(0.05,0,0,0.05,12,0)" xlink:href="#V"/><use transform="matrix(0.05,0,0,0.05,22,0)" xlink:href="#aa"/><use transform="matrix(0.05,0,0,0.05,31,0)" xlink:href="#O"/><use transform="matrix(0.05,0,0,0.05,34.95,0)" xlink:href="#H"/><use transform="matrix(0.05,0,0,0.05,44.95,0)" xlink:href="#B"/><use transform="matrix(0.05,0,0,0.05,54.95,0)" xlink:href="#aa"/><use transform="matrix(0.05,0,0,0.05,63.95,0)" xlink:href="#aa"/><use transform="matrix(0.05,0,0,0.05,72.95,0)" xlink:href="#N"/><use transform="matrix(0.05,0,0,0.05,84.95,0)" xlink:href="#B"/><use transform="matrix(0.05,0,0,0.05,94.95,0)" xlink:href="#J"/><use transform="matrix(0.05,0,0,0.05,100.9,0)" xlink:href="#Q"/><use transform="matrix(0.05,0,0,0.05,109.9,0)" xlink:href="#O"/><use transform="matrix(0.05,0,0,0.05,113.85000000000001,0)" xlink:href="#T"/><use transform="matrix(0.05,0,0,0.05,122.85000000000001,0)" xlink:href="#B"/></g><path fill="#333" d="M143 0L79-87 56-68V0H24v-261h32v163l83-92h37l-77 82L181 0h-38" id="ab"/><g id="r"><use transform="matrix(0.05,0,0,0.05,0,0)" xlink:href="#Y"/><use transform="matrix(0.05,0,0,0.05,12.950000000000001,0)" xlink:href="#W"/><use transform="matrix(0.05,0,0,0.05,22.950000000000003,0)" xlink:href="#B"/><use transform="matrix(0.05,0,0,0.05,32.95,0)" xlink:href="#T"/><use transform="matrix(0.05,0,0,0.05,41.95,0)" xlink:href="#ab"/><use transform="matrix(0.05,0,0,0.05,50.95,0)" xlink:href="#F"/><use transform="matrix(0.05,0,0,0.05,55.95,0)" xlink:href="#H"/></g><g id="s"><use transform="matrix(0.05,0,0,0.05,0,0)" xlink:href="#Y"/><use transform="matrix(0.05,0,0,0.05,12.950000000000001,0)" xlink:href="#C"/><use transform="matrix(0.05,0,0,0.05,16.900000000000002,0)" xlink:href="#B"/><use transform="matrix(0.05,0,0,0.05,26.900000000000002,0)" xlink:href="#R"/><use transform="matrix(0.05,0,0,0.05,36.900000000000006,0)" xlink:href="#H"/><use transform="matrix(0.05,0,0,0.05,46.900000000000006,0)" xlink:href="#C"/><use transform="matrix(0.05,0,0,0.05,50.85000000000001,0)" xlink:href="#O"/><use transform="matrix(0.05,0,0,0.05,54.80000000000001,0)" xlink:href="#H"/><use transform="matrix(0.05,0,0,0.05,64.80000000000001,0)" xlink:href="#B"/><use transform="matrix(0.05,0,0,0.05,74.80000000000001,0)" xlink:href="#aa"/><use transform="matrix(0.05,0,0,0.05,83.80000000000001,0)" xlink:href="#aa"/></g><path fill="#333" d="M210-169c-67 3-38 105-44 169h-31v-121c0-29-5-50-35-48C34-165 62-65 56 0H25l-1-190h30c1 10-1 24 2 32 10-44 99-50 107 0 11-21 27-35 58-36 85-2 47 119 55 194h-31v-121c0-29-5-49-35-48" id="ac"/><g id="t"><use transform="matrix(0.05,0,0,0.05,0,0)" xlink:href="#L"/><use transform="matrix(0.05,0,0,0.05,12.950000000000001,0)" xlink:href="#z"/><use transform="matrix(0.05,0,0,0.05,22.950000000000003,0)" xlink:href="#z"/><use transform="matrix(0.05,0,0,0.05,32.95,0)" xlink:href="#ac"/><use transform="matrix(0.05,0,0,0.05,47.900000000000006,0)" xlink:href="#aa"/></g><g id="u"><use transform="matrix(0.05,0,0,0.05,0,0)" xlink:href="#N"/><use transform="matrix(0.05,0,0,0.05,12,0)" xlink:href="#B"/><use transform="matrix(0.05,0,0,0.05,22,0)" xlink:href="#J"/><use transform="matrix(0.05,0,0,0.05,27.950000000000003,0)" xlink:href="#Q"/><use transform="matrix(0.05,0,0,0.05,36.95,0)" xlink:href="#O"/><use transform="matrix(0.05,0,0,0.05,40.900000000000006,0)" xlink:href="#T"/><use transform="matrix(0.05,0,0,0.05,49.900000000000006,0)" xlink:href="#B"/></g><path fill="#333" d="M137 0h-34L2-248h35l83 218 83-218h36" id="ad"/><g id="v"><use transform="matrix(0.05,0,0,0.05,0,0)" xlink:href="#ad"/><use transform="matrix(0.05,0,0,0.05,10.65,0)" xlink:href="#R"/><use transform="matrix(0.05,0,0,0.05,20.65,0)" xlink:href="#C"/><use transform="matrix(0.05,0,0,0.05,24.599999999999998,0)" xlink:href="#V"/><use transform="matrix(0.05,0,0,0.05,34.599999999999994,0)" xlink:href="#B"/></g><path fill="#333" d="M190 0L58-211 59 0H30v-248h39L202-35l-2-213h31V0h-41" id="ae"/><path fill="#333" d="M85-194c31 0 48 13 60 33l-1-100h32l1 261h-30c-2-10 0-23-3-31C134-8 116 4 85 4 32 4 16-35 15-94c0-66 23-100 70-100zm9 24c-40 0-46 34-46 75 0 40 6 74 45 74 42 0 51-32 51-76 0-42-9-74-50-73" id="af"/><g id="w"><use transform="matrix(0.05,0,0,0.05,0,0)" xlink:href="#ae"/><use transform="matrix(0.05,0,0,0.05,12.950000000000001,0)" xlink:href="#z"/><use transform="matrix(0.05,0,0,0.05,22.950000000000003,0)" xlink:href="#L"/><use transform="matrix(0.05,0,0,0.05,35.900000000000006,0)" xlink:href="#B"/><use transform="matrix(0.05,0,0,0.05,45.900000000000006,0)" xlink:href="#R"/><use transform="matrix(0.05,0,0,0.05,55.900000000000006,0)" xlink:href="#af"/><use transform="matrix(0.05,0,0,0.05,65.9,0)" xlink:href="#B"/><use transform="matrix(0.05,0,0,0.05,75.9,0)" xlink:href="#J"/><use transform="matrix(0.05,0,0,0.05,81.85000000000001,0)" xlink:href="#aa"/></g><path fill="#333" d="M115-194c55 1 70 41 70 98S169 2 115 4C84 4 66-9 55-30l1 105H24l-1-265h31l2 30c10-21 28-34 59-34zm-8 174c40 0 45-34 45-75s-6-73-45-74c-42 0-51 32-51 76 0 43 10 73 51 73" id="ag"/><path fill="#333" d="M101-234c-31-9-42 10-38 44h38v23H63V0H32v-167H5v-23h27c-7-52 17-82 69-68v24" id="ah"/><g id="x"><use transform="matrix(0.05,0,0,0.05,0,0)" xlink:href="#ae"/><use transform="matrix(0.05,0,0,0.05,12.950000000000001,0)" xlink:href="#z"/><use transform="matrix(0.05,0,0,0.05,22.950000000000003,0)" xlink:href="#y"/><use transform="matrix(0.05,0,0,0.05,35.900000000000006,0)" xlink:href="#B"/><use transform="matrix(0.05,0,0,0.05,45.900000000000006,0)" xlink:href="#C"/><use transform="matrix(0.05,0,0,0.05,49.85000000000001,0)" xlink:href="#ag"/><use transform="matrix(0.05,0,0,0.05,59.85,0)" xlink:href="#ah"/><use transform="matrix(0.05,0,0,0.05,64.85000000000001,0)" xlink:href="#V"/><use transform="matrix(0.05,0,0,0.05,74.85000000000001,0)" xlink:href="#C"/></g></defs></g></svg>